name C:\Users\u0101727\Documents\MyRepositories\paper-ad\predictivesimulations_2d/Results/PredSim_2D/IK_c31.mot
datacolumns 11
datarows 51
range 0.00000000 0.48308223
endheader
time	pelvis_tilt	pelvis_tx	pelvis_ty	hip_flexion_l	hip_flexion_r	knee_angle_l	knee_angle_r	ankle_angle_l	ankle_angle_r	lumbar_extension	
          0.00000000	        -16.12971818	          0.00000000	          0.88082992	          1.88686987	         39.22741444	        -15.91927884	         -9.80897745	          6.66096192	         13.34837691	         10.55114339	
          0.00966164	        -16.08579140	          0.01500845	          0.88005277	          1.79446677	         38.70006889	        -17.47047762	         -9.20890055	          5.48696185	         12.87589624	         10.65922919	
          0.01932329	        -16.02994619	          0.03028809	          0.87922663	          1.78544904	         38.08502546	        -19.20201469	         -8.89791061	          4.20953639	         12.34622495	         10.78101968	
          0.02898493	        -15.96495017	          0.04581606	          0.87836634	          1.86790193	         37.31733204	        -21.10514950	         -8.99252470	          2.78626249	         11.75630129	         10.92005137	
          0.03864658	        -15.89953348	          0.06140125	          0.87761749	          2.04862108	         36.43815189	        -23.16264338	         -9.31808391	          1.28970809	         11.14464800	         11.06686352	
          0.04830822	        -15.84508394	          0.07668623	          0.87724291	          2.36271177	         35.56967099	        -25.28211555	         -9.61620909	         -0.02116534	         10.54747766	         11.19702196	
          0.05796987	        -15.81095722	          0.09140634	          0.87751480	          2.83879756	         34.74711050	        -27.30570377	         -9.89133793	         -1.03147698	          9.96756893	         11.29558767	
          0.06763151	        -15.80006073	          0.10550005	          0.87857736	          3.46579243	         33.96948327	        -29.16472614	        -10.13200375	         -1.78211056	          9.42279102	         11.36181042	
          0.07729316	        -15.80733469	          0.11906044	          0.88036552	          4.22420349	         33.21634137	        -30.88363339	        -10.32484801	         -2.28585497	          8.93183047	         11.40208744	
          0.08695480	        -15.82564023	          0.13222247	          0.88264505	          5.08958869	         32.46640686	        -32.49393724	        -10.46301112	         -2.55867209	          8.50663838	         11.42378199	
          0.09661645	        -15.84936026	          0.14509928	          0.88517086	          6.04426431	         31.70302027	        -34.01517717	        -10.54129415	         -2.62001802	          8.15347702	         11.43235810	
          0.10627809	        -15.87497937	          0.15776624	          0.88775807	          7.07597311	         30.91728194	        -35.45603227	        -10.55901660	         -2.48771178	          7.87379378	         11.43092384	
          0.11593974	        -15.90058184	          0.17027022	          0.89028463	          8.17527283	         30.10559750	        -36.81737372	        -10.51817759	         -2.17937422	          7.66625000	         11.42113763	
          0.12560138	        -15.92523147	          0.18264132	          0.89267350	          9.33393642	         29.26699952	        -38.09535333	        -10.42191166	         -1.71237649	          7.52856689	         11.40401243	
          0.13526302	        -15.94846101	          0.19489963	          0.89487636	         10.54536766	         28.40236187	        -39.28439689	        -10.27469694	         -1.10352573	          7.45777057	         11.38015044	
          0.14492467	        -15.97001478	          0.20706013	          0.89686245	         11.80361989	         27.51385591	        -40.37780675	        -10.08235843	         -0.36925424	          7.45008604	         11.34999762	
          0.15458631	        -15.98973093	          0.21913522	          0.89861200	         13.10289563	         26.60445783	        -41.36913650	         -9.85143513	          0.47387609	          7.50146621	         11.31397020	
          0.16424796	        -16.00752844	          0.23113607	          0.90011360	         14.43682526	         25.67779517	        -42.25287875	         -9.58967174	          1.40896656	          7.60739345	         11.27255163	
          0.17390960	        -16.02338766	          0.24307171	          0.90136442	         15.79944475	         24.73815866	        -43.02370342	         -9.30489675	          2.41891740	          7.76322212	         11.22612090	
          0.18357125	        -16.03741183	          0.25495054	          0.90236964	         17.18350792	         23.79007694	        -43.67714399	         -9.00617564	          3.48631320	          7.96406639	         11.17517011	
          0.19323289	        -16.04986242	          0.26677909	          0.90314255	         18.58281005	         22.83763891	        -44.20486031	         -8.70039540	          4.59373417	          8.20440494	         11.12012607	
          0.20289454	        -16.06104320	          0.27856489	          0.90370090	         19.98990872	         21.88434752	        -44.59915892	         -8.39435366	          5.72360647	          8.47696440	         11.06160014	
          0.21255618	        -16.07120932	          0.29031477	          0.90406466	         21.39821673	         20.93443696	        -44.85156977	         -8.09356567	          6.85837906	          8.77380461	         11.00012002	
          0.22221783	        -16.08018526	          0.30204351	          0.90425236	         22.79331299	         19.99354892	        -44.95883988	         -7.81492573	          7.98016076	          9.08507803	         10.93695464	
          0.23187947	        -16.08749913	          0.31375317	          0.90428485	         24.17946562	         19.06619986	        -44.90700306	         -7.56770537	          9.07230046	          9.40247931	         10.87162169	
          0.24154112	        -16.09305805	          0.32544720	          0.90417915	         25.56165489	         18.15199497	        -44.68141829	         -7.34480051	         10.11859964	          9.71973831	         10.80413741	
          0.25120276	        -16.09695803	          0.33714468	          0.90394300	         26.92452981	         17.25008644	        -44.28936055	         -7.14774494	         11.10243790	         10.02849045	         10.73647211	
          0.26086441	        -16.09944649	          0.34885729	          0.90358506	         28.25762310	         16.36251156	        -43.73326497	         -6.98015533	         12.00917081	         10.32047336	         10.66959158	
          0.27052605	        -16.10080982	          0.36059655	          0.90311309	         29.55082706	         15.49042051	        -43.01941267	         -6.84462578	         12.82655883	         10.58887777	         10.60444995	
          0.28018769	        -16.10128988	          0.37237179	          0.90253509	         30.79677555	         14.63452245	        -42.15584135	         -6.74256676	         13.54597761	         10.82858394	         10.54169151	
          0.28984934	        -16.10125534	          0.38419072	          0.90185972	         31.98899183	         13.79531049	        -41.14725314	         -6.67443533	         14.16320598	         11.03617429	         10.48187917	
          0.29951098	        -16.10107349	          0.39605937	          0.90109540	         33.12310409	         12.97283717	        -40.00085227	         -6.64006991	         14.67853669	         11.21040681	         10.42536671	
          0.30917263	        -16.10114147	          0.40798248	          0.90025065	         34.19560547	         12.16732415	        -38.72140625	         -6.63994869	         15.09626286	         11.35205118	         10.37237709	
          0.31883427	        -16.10186497	          0.41996314	          0.89933322	         35.20514770	         11.37865481	        -37.31401491	         -6.67338603	         15.42350444	         11.46408415	         10.32292124	
          0.32849592	        -16.10368418	          0.43200585	          0.89834965	         36.14913807	         10.60614986	        -35.78559963	         -6.73925888	         15.66868449	         11.55072828	         10.27720233	
          0.33815756	        -16.10695766	          0.44411598	          0.89730472	         37.02449393	          9.84944054	        -34.14598647	         -6.83759095	         15.84048693	         11.61670668	         10.23544342	
          0.34781921	        -16.11207941	          0.45630046	          0.89620207	         37.82547949	          9.10862042	        -32.39913764	         -6.96944727	         15.94734830	         11.66498503	         10.19812475	
          0.35748085	        -16.11934822	          0.46856741	          0.89504414	         38.54645396	          8.38376521	        -30.55197990	         -7.13541672	         15.99738010	         11.69569683	         10.16582375	
          0.36714250	        -16.12857354	          0.48092774	          0.89383429	         39.18317048	          7.67573667	        -28.63593805	         -7.33914232	         15.99802229	         11.70828857	         10.13905762	
          0.37680414	        -16.13944297	          0.49339703	          0.89258229	         39.72714472	          6.98626386	        -26.68946633	         -7.58684857	         15.95576971	         11.69977612	         10.11886528	
          0.38646579	        -16.15171918	          0.50599368	          0.89130573	         40.16691742	          6.31788240	        -24.74237225	         -7.88544889	         15.87614242	         11.66129742	         10.10672660	
          0.39612743	        -16.16484846	          0.51873607	          0.89002726	         40.49524841	          5.67461066	        -22.81983792	         -8.24402491	         15.76354406	         11.57894935	         10.10385901	
          0.40578907	        -16.17775936	          0.53164045	          0.88876898	         40.71446348	          5.06095043	        -20.94953548	         -8.67249106	         15.62099356	         11.43819913	         10.11077633	
          0.41545072	        -16.18911606	          0.54472161	          0.88754941	         40.83160728	          4.48224593	        -19.15488504	         -9.18221692	         15.45004051	         11.22585711	         10.12759319	
          0.42511236	        -16.19780408	          0.55799522	          0.88638425	         40.85106539	          3.94429473	        -17.44407767	         -9.78452405	         15.25104196	         10.92811983	         10.15472476	
          0.43477401	        -16.20278275	          0.57147685	          0.88528537	         40.77813986	          3.45236916	        -15.82711424	        -10.48922953	         15.02309569	         10.53123531	         10.19257200	
          0.44443565	        -16.20289666	          0.58518114	          0.88425986	         40.62015229	          3.01169602	        -14.32241175	        -11.30607273	         14.76403720	         10.02303216	         10.24130941	
          0.45409730	        -16.19702497	          0.59912276	          0.88330969	         40.38174513	          2.62824441	        -12.94467336	        -12.24578246	         14.47104713	          9.39153717	         10.30127569	
          0.46375894	        -16.18391625	          0.61331554	          0.88243065	         40.06655494	          2.30877786	        -11.71102522	        -13.32027185	         14.14064424	          8.62486995	         10.37281035	
          0.47342059	        -16.16200488	          0.62777096	          0.88161090	         39.68108520	          2.05964146	        -10.65382729	        -14.54082839	         13.76816039	          7.71478855	         10.45597109	
          0.48308223	        -16.12971818	          0.64249937	          0.88082992	         39.22741444	          1.88686987	         -9.80897745	        -15.91927884	         13.34837691	          6.66096192	         10.55114339	
